<svg xmlns="http://www.w3.org/2000/svg" viewBox="0 0 520 400" font-family="Yu Gothic UI, Meiryo, sans-serif"><rect x="30" y="60" width="110" height="60" rx="8" fill="#fff" stroke="#1A1F24" stroke-width="2.5"/><text x="85.0" y="97.0" font-size="20" fill="#1A1F24" text-anchor="middle">送信機</text><line x1="140" y1="90" x2="380" y2="90" stroke="#1A1F24" stroke-width="4"/><line x1="400" y1="90" x2="400" y2="40" stroke="#1A1F24" stroke-width="3"/><line x1="380" y1="40" x2="420" y2="40" stroke="#1A1F24" stroke-width="3"/><text x="400" y="130" font-size="16" fill="#1A1F24" text-anchor="middle">アンテナ</text><line x1="160" y1="70" x2="340" y2="70" stroke="#2E9E62" stroke-width="3"/><polygon points="340.0,70.0 327.1,75.5 327.1,64.5" fill="#2E9E62"/><text x="250" y="60" font-size="15" fill="#2E9E62" text-anchor="middle">進行波</text><line x1="340" y1="112" x2="160" y2="112" stroke="#C8463D" stroke-width="3"/><polygon points="160.0,112.0 172.9,106.5 172.9,117.5" fill="#C8463D"/><text x="250" y="128" font-size="15" fill="#C8463D" text-anchor="middle">反射波（整合がずれると戻る）</text><rect x="40" y="190" width="200" height="80" rx="8" fill="#EAF6EE" stroke="#2E9E62" stroke-width="2.5"/><text x="140.0" y="225.5" font-size="18" fill="#1A1F24" text-anchor="middle">整合している</text><text x="140.0" y="247.1" font-size="18" fill="#1A1F24" text-anchor="middle">反射なし</text><text x="140" y="300" font-size="22" fill="#2E9E62" text-anchor="middle" font-weight="700">SWR ＝ 1（最良）</text><rect x="280" y="190" width="200" height="80" rx="8" fill="#FDECEA" stroke="#C8463D" stroke-width="2.5"/><text x="380.0" y="225.5" font-size="18" fill="#1A1F24" text-anchor="middle">整合がずれている</text><text x="380.0" y="247.1" font-size="18" fill="#1A1F24" text-anchor="middle">反射あり</text><text x="380" y="300" font-size="18" fill="#C8463D" text-anchor="middle" font-weight="700">SWR ＞ 1（大きいほど悪い）</text><text x="260" y="365" font-size="19" fill="#1A1F24" text-anchor="middle">SWRメータで測るのは「定在波比」</text></svg>