<svg xmlns="http://www.w3.org/2000/svg" viewBox="0 0 520 400" font-family="Yu Gothic UI, Meiryo, sans-serif"><line x1="40" y1="60" x2="40" y2="30" stroke="#1A1F24" stroke-width="3"/><line x1="25" y1="30" x2="55" y2="30" stroke="#1A1F24" stroke-width="3"/><line x1="40" y1="60" x2="40" y2="90" stroke="#1A1F24" stroke-width="3"/><rect x="30" y="90" width="90" height="70" rx="8" fill="#fff" stroke="#1A1F24" stroke-width="2.5"/><text x="75.0" y="121.0" font-size="16" fill="#1A1F24" text-anchor="middle">高周波</text><text x="75.0" y="140.2" font-size="16" fill="#1A1F24" text-anchor="middle">増幅</text><line x1="120" y1="125" x2="130" y2="125" stroke="#1A1F24" stroke-width="3"/><polygon points="130.0,125.0 117.1,130.5 117.1,119.5" fill="#1A1F24"/><rect x="130" y="90" width="90" height="70" rx="8" fill="#FFF6E5" stroke="#F5B041" stroke-width="2.5"/><text x="175.0" y="121.0" font-size="16" fill="#1A1F24" text-anchor="middle">周波数</text><text x="175.0" y="140.2" font-size="16" fill="#1A1F24" text-anchor="middle">変換</text><line x1="220" y1="125" x2="230" y2="125" stroke="#1A1F24" stroke-width="3"/><polygon points="230.0,125.0 217.1,130.5 217.1,119.5" fill="#1A1F24"/><rect x="230" y="90" width="90" height="70" rx="8" fill="#FFF6E5" stroke="#F5B041" stroke-width="2.5"/><text x="275.0" y="121.0" font-size="16" fill="#1A1F24" text-anchor="middle">中間周波</text><text x="275.0" y="140.2" font-size="16" fill="#1A1F24" text-anchor="middle">増幅</text><line x1="320" y1="125" x2="330" y2="125" stroke="#1A1F24" stroke-width="3"/><polygon points="330.0,125.0 317.1,130.5 317.1,119.5" fill="#1A1F24"/><rect x="330" y="90" width="90" height="70" rx="8" fill="#fff" stroke="#1A1F24" stroke-width="2.5"/><text x="375.0" y="130.6" font-size="16" fill="#1A1F24" text-anchor="middle">検波</text><line x1="420" y1="125" x2="410" y2="125" stroke="#1A1F24" stroke-width="3"/><polygon points="410.0,125.0 422.9,119.5 422.9,130.5" fill="#1A1F24"/><rect x="410" y="90" width="80" height="70" rx="8" fill="#fff" stroke="#1A1F24" stroke-width="2.5"/><text x="450.0" y="121.0" font-size="16" fill="#1A1F24" text-anchor="middle">低周波</text><text x="450.0" y="140.2" font-size="16" fill="#1A1F24" text-anchor="middle">増幅</text><line x1="490" y1="125" x2="505" y2="125" stroke="#1A1F24" stroke-width="3"/><polygon points="505,110 505,140 515,150 515,100" fill="#1A1F24"/><rect x="130" y="210" width="90" height="60" rx="8" fill="#fff" stroke="#1A1F24" stroke-width="2.5"/><text x="175.0" y="245.25" font-size="15" fill="#1A1F24" text-anchor="middle">局部発振器</text><line x1="175" y1="210" x2="175" y2="160" stroke="#1A1F24" stroke-width="3"/><polygon points="175.0,160.0 180.5,172.9 169.5,172.9" fill="#1A1F24"/><text x="175" y="300" font-size="15" fill="#66727F" text-anchor="middle">受信 145MHz、局発 155.7MHz</text><text x="175" y="322" font-size="16" fill="#C8463D" text-anchor="middle" font-weight="700">→ 差の 10.7MHz ＝ 中間周波数（IF）</text><text x="275" y="195" font-size="14" fill="#C8463D" text-anchor="middle">選択度を決める</text><text x="75" y="195" font-size="14" fill="#C8463D" text-anchor="middle">S/N を良くする</text><text x="260" y="375" font-size="18" fill="#1A1F24" text-anchor="middle">いつも同じ IF に変換してから増幅する</text></svg>