<svg xmlns="http://www.w3.org/2000/svg" viewBox="0 0 520 400" font-family="Yu Gothic UI, Meiryo, sans-serif"><line x1="40" y1="150" x2="140" y2="150" stroke="#1A1F24" stroke-width="3"/><circle cx="200" cy="150" r="40" fill="#fff" stroke="#1A1F24" stroke-width="2.5"/><text x="200" y="159.1" font-size="26" fill="#1A1F24" text-anchor="middle">A</text><line x1="240" y1="150" x2="340" y2="150" stroke="#1A1F24" stroke-width="3"/><text x="200" y="90" font-size="17" fill="#66727F" text-anchor="middle">内部抵抗 r</text><line x1="140" y1="150" x2="140" y2="240" stroke="#1A1F24" stroke-width="3"/><line x1="240" y1="150" x2="240" y2="240" stroke="#1A1F24" stroke-width="3"/><line x1="140" y1="240" x2="165" y2="240" stroke="#1A1F24" stroke-width="3"/><rect x="165" y="230" width="50" height="20" fill="#fff" stroke="#1A1F24" stroke-width="2.5"/><line x1="215" y1="240" x2="240" y2="240" stroke="#1A1F24" stroke-width="3"/><text x="190" y="285" font-size="18" fill="#C8463D" text-anchor="middle" font-weight="700">分流器 r/4</text><line x1="40" y1="130" x2="130" y2="130" stroke="#1A1F24" stroke-width="3"/><polygon points="130.0,130.0 117.1,135.5 117.1,124.5" fill="#1A1F24"/><text x="85" y="118" font-size="20" fill="#1A1F24" text-anchor="middle" font-weight="700">5</text><line x1="150" y1="108" x2="250" y2="108" stroke="#2F6DB5" stroke-width="3"/><polygon points="250.0,108.0 237.1,113.5 237.1,102.5" fill="#2F6DB5"/><text x="200" y="66" font-size="10" fill="#1A1F24" text-anchor="middle"></text><text x="270" y="112" font-size="20" fill="#2F6DB5" text-anchor="start" font-weight="700">1</text><line x1="150" y1="262" x2="250" y2="262" stroke="#C8463D" stroke-width="3"/><polygon points="250.0,262.0 237.1,267.5 237.1,256.5" fill="#C8463D"/><text x="270" y="266" font-size="20" fill="#C8463D" text-anchor="start" font-weight="700">4</text><text x="400" y="150" font-size="18" fill="#2F6DB5" text-anchor="start">電流計に 1</text><text x="400" y="178" font-size="18" fill="#C8463D" text-anchor="start">分流器に 4</text><text x="400" y="206" font-size="18" fill="#1A1F24" text-anchor="start" font-weight="700">合計 5</text><text x="260" y="345" font-size="20" fill="#1A1F24" text-anchor="middle" font-weight="700">倍率 ＝ 1 ＋ r ÷（分流器の抵抗）</text><text x="260" y="375" font-size="20" fill="#C8463D" text-anchor="middle" font-weight="700">＝ 1 ＋ 4 ＝ 5倍</text></svg>